<?xml version="1.0" standalone="no"?><!DOCTYPE svg PUBLIC "-//W3C//DTD SVG 1.1//EN" "http://www.w3.org/Graphics/SVG/1.1/DTD/svg11.dtd"><svg t="1687842446310" class="icon" viewBox="0 0 1024 1024" version="1.1" xmlns="http://www.w3.org/2000/svg" p-id="7633" xmlns:xlink="http://www.w3.org/1999/xlink"><path d="M485.9392 152.064a32 32 0 0 1 52.1216 0l197.376 276.3776 188.928-94.4128c22.528-11.264 47.872 6.656 46.2848 30.5664l-0.7168 4.864-106.6496 490.6496a32 32 0 0 1-31.2832 25.2416H192a32 32 0 0 1-31.232-25.2416L54.016 369.4592a32 32 0 0 1 45.568-35.4304l188.8768 94.4128zM512 501.3504a117.3504 117.3504 0 1 0 0 234.6496 117.3504 117.3504 0 0 0 0-234.6496z m0 64a53.3504 53.3504 0 1 1 0 106.6496 53.3504 53.3504 0 0 1 0-106.6496z" p-id="7634"></path></svg>